<?xml version="1.0" encoding="utf-8"?>
<!-- Generator: Adobe Illustrator 25.2.0, SVG Export Plug-In . SVG Version: 6.00 Build 0)  -->
<svg version="1.1" id="Layer_1" xmlns="http://www.w3.org/2000/svg" xmlns:xlink="http://www.w3.org/1999/xlink" x="0px" y="0px"
	 viewBox="0 0 220.3 222.4" style="enable-background:new 0 0 220.3 222.4;" xml:space="preserve">
<style type="text/css">
	.st0{display:none;}
	.st1{display:inline;}
	.st2{display:inline;clip-path:url(#SVGID_2_);}
	.st3{fill:#FFFFFF;}
	.st4{clip-path:url(#SVGID_4_);}
	.st5{clip-path:url(#SVGID_6_);}
	.st6{clip-path:url(#SVGID_8_);}
	.st7{clip-path:url(#SVGID_10_);}
	.st8{clip-path:url(#SVGID_12_);}
</style>
<g class="st0">
	<defs>
		<rect id="SVGID_1_" x="-722.2" y="-309.5" width="1025" height="576.3"/>
	</defs>
	<clipPath id="SVGID_2_" class="st1">
		<use xlink:href="#SVGID_1_"  style="overflow:visible;"/>
	</clipPath>
	<g class="st2">
		<rect x="-709.9" y="-295" class="st3" width="126" height="43.5"/>
		<rect x="-523.4" y="-272.4" class="st3" width="66.8" height="30.8"/>
	</g>
</g>
<g>
	<defs>
		<rect id="SVGID_3_" x="2.6" y="3.4" width="217.6" height="219.1"/>
	</defs>
	<clipPath id="SVGID_4_">
		<use xlink:href="#SVGID_3_"  style="overflow:visible;"/>
	</clipPath>
	<g class="st4">
		<path d="M90.8,119.4c-0.2,0-0.3-0.1-0.4-0.1c-0.3-0.2-0.3-0.7-0.1-0.9c3.2-3.9,7-7.2,11.3-9.9c3-1.8,9.2-5.6,12.5-2.3
			c0.3,0.3,0.3,0.7,0,0.9s-0.7,0.3-0.9,0c-2.6-2.5-8.4,1-10.8,2.5c-4.2,2.6-7.9,5.8-11.1,9.6C91.2,119.3,91,119.4,90.8,119.4"/>
		<path d="M69.4,164.7c-0.9,0-1.7,0-2.5-0.1c-4.2-0.5-7.3-2.7-8.5-6.1c-0.1-0.3,0.1-0.7,0.4-0.8c0.3-0.1,0.7,0.1,0.8,0.4l0,0
			c1,2.9,3.7,4.8,7.4,5.2c8,1,16.1-3.1,23.1-7.2c8.3-5,16.1-10.8,23.1-17.4c0.3-0.3,0.7-0.2,1,0c0.3,0.3,0.2,0.7,0,1l0,0
			c-7.1,6.6-14.9,12.5-23.3,17.5C84.4,161,77,164.7,69.4,164.7"/>
		<path d="M123.2,130.4c-0.2,0-0.3-0.1-0.5-0.2c-0.3-0.3-0.3-0.7,0-0.9c3.9-4.2,7.5-8.4,10.7-12.6c0.2-0.3,0.6-0.4,0.9-0.1
			c0,0,0,0,0,0c0.3,0.2,0.4,0.6,0.1,0.9c0,0,0,0,0,0c-3.2,4.2-6.8,8.5-10.7,12.7C123.6,130.3,123.4,130.4,123.2,130.4"/>
		<path d="M138.5,111.3c-0.4,0-0.7-0.3-0.6-0.7c0-0.1,0-0.2,0.1-0.3c1.8-2.6,3.5-5.3,5.1-8.1c2.9-4.6,5.2-9.5,6.8-14.7
			c1.6-5.6,1.5-10.2-0.3-13.6c-0.2-0.3,0-0.7,0.3-0.9c0,0,0,0,0,0c0.3-0.2,0.7,0,0.9,0.3c1.9,3.7,2,8.6,0.4,14.5
			c-1.6,5.3-3.9,10.3-6.9,15c-1.6,2.8-3.3,5.5-5.1,8.1C139,111.2,138.8,111.3,138.5,111.3"/>
		<path d="M52.7,187.7c-0.3,0-0.7,0-1,0c-7.4-0.3-13.1-4.3-15-10.5c-2-6.7,0-13.9,2-19.5c4.5-12.6,12.4-25.4,25.1-40.5
			c10.2-12.2,21.7-23.1,34.3-32.7c6.4-4.9,13.3-9.1,20.5-12.7c5.5-2.7,13.8-6.2,21.6-5.2c1.4,0.2,2.8,0.5,4.1,1
			c0.3,0.1,0.5,0.5,0.4,0.9c-0.1,0.3-0.5,0.5-0.9,0.4c-1.2-0.5-2.5-0.8-3.7-0.9c-7.5-1-15.5,2.5-20.9,5.1
			c-7.1,3.6-13.9,7.8-20.3,12.6c-12.6,9.5-24,20.4-34.1,32.5c-12.5,14.9-20.4,27.7-24.8,40.1c-1.9,5.4-3.8,12.3-2,18.6
			c1.7,5.7,7,9.3,13.7,9.6s13.7-2.2,20.1-4.8c7.4-3.1,14.5-6.9,21.2-11.4c0.3-0.2,0.7-0.1,0.9,0.3c0.2,0.3,0.1,0.7-0.2,0.9
			c-6.8,4.5-13.9,8.4-21.4,11.5C66,185.4,59.3,187.7,52.7,187.7"/>
		<path d="M99.5,167.1c-0.2,0-0.4-0.1-0.5-0.3c-0.2-0.3-0.2-0.7,0.1-0.9c0,0,0,0,0,0c1.4-1,2.8-2,4.2-3.1
			c11.5-8.8,22.2-18.6,32-29.2c9.8-10.5,18.7-21.9,26.5-34c12.7-20,15.1-31.6,15.7-38.6c0.4-4.3,0.3-12.1-5.3-17
			c-3.8-3.3-9.3-4.7-16.3-4.2c-14.8,1.1-29.1,8.7-41.2,16c-0.3,0.2-0.7,0.1-0.9-0.2c0,0,0,0,0,0c-0.2-0.3-0.1-0.7,0.2-0.9
			c0,0,0,0,0,0c12.2-7.4,26.8-15.1,41.8-16.2c7.4-0.5,13.2,1,17.3,4.5c6,5.2,6.2,13.6,5.8,18.1c-1.4,15-9.8,29.5-15.9,39.2
			c-7.8,12.2-16.8,23.6-26.7,34.2c-9.9,10.7-20.6,20.5-32.2,29.4c-1.4,1.1-2.8,2.1-4.2,3.1C99.8,167,99.7,167.1,99.5,167.1"/>
		<path d="M79.6,81.9c-0.2,0-0.4-0.1-0.5-0.2c-0.2-0.3-0.2-0.7,0.1-0.9c9.3-8.3,19.2-15.9,29.6-22.8c0.3-0.2,0.7-0.2,0.9,0.1
			c0.2,0.3,0.2,0.7-0.1,0.9c0,0,0,0-0.1,0C99.1,65.9,89.3,73.5,80,81.8C79.9,81.9,79.7,81.9,79.6,81.9"/>
	</g>
</g>
<g>
	<defs>
		<rect id="SVGID_5_" x="2.6" y="177.7" width="56" height="44.7"/>
	</defs>
	<clipPath id="SVGID_6_">
		<use xlink:href="#SVGID_5_"  style="overflow:visible;"/>
	</clipPath>
	<g class="st5">
		<path d="M28.3,222.4c-2.5,0-4.9-0.2-7.3-0.7c-6.1-1.2-10.9-4-13.9-8.2c-2.8-4.1-4.4-9-4.4-14c-0.2-6,1-12.7,3.8-21
			c0.1-0.3,0.5-0.5,0.8-0.4c0.4,0.1,0.5,0.5,0.4,0.8c0,0,0,0,0,0C5,187.2,3.8,193.7,4,199.5c0,4.7,1.5,9.3,4.1,13.2
			c2.8,3.9,7.4,6.5,13.1,7.6c12.4,2.5,25.3-2.3,36.4-6.9c0.3-0.1,0.7,0,0.9,0.4c0.1,0.3,0,0.7-0.3,0.9c0,0,0,0,0,0
			C49,218.5,38.7,222.4,28.3,222.4"/>
	</g>
</g>
<g>
	<defs>
		<rect id="SVGID_7_" x="2.6" y="3.4" width="217.6" height="219.1"/>
	</defs>
	<clipPath id="SVGID_8_">
		<use xlink:href="#SVGID_7_"  style="overflow:visible;"/>
	</clipPath>
	<g class="st6">
		<path d="M65.7,211.2c-0.3,0-0.5-0.2-0.6-0.4c-0.2-0.3,0-0.7,0.3-0.9l1.9-1c0.3-0.2,0.7,0,0.9,0.3c0.2,0.3,0,0.7-0.3,0.9
			c0,0,0,0,0,0c-0.7,0.3-1.3,0.7-2,1C65.9,211.2,65.8,211.3,65.7,211.2"/>
		<path d="M74.5,206.7c-0.4,0-0.7-0.3-0.7-0.7c0-0.2,0.1-0.4,0.3-0.6c19.6-10.6,38.8-25,60.4-45.3c0.3-0.3,0.7-0.3,1,0
			c0.3,0.3,0.3,0.7,0,0.9c0,0,0,0,0,0c-21.7,20.4-41,34.8-60.7,45.5C74.8,206.6,74.7,206.6,74.5,206.7"/>
		<path d="M31.2,141.4c-3.3,0-6.1-2.7-6.1-6.1c0-3.4,2.7-6.1,6.1-6.1s6.1,2.7,6.1,6.1C37.3,138.7,34.6,141.4,31.2,141.4
			C31.2,141.4,31.2,141.4,31.2,141.4 M31.2,130.6c-2.6,0-4.7,2.1-4.7,4.7c0,2.6,2.1,4.7,4.7,4.7s4.7-2.1,4.7-4.7
			c0-1.7-0.9-3.2-2.3-4.1C32.9,130.9,32.1,130.6,31.2,130.6L31.2,130.6z"/>
		<path d="M69.4,91.3c-0.4,0-0.7-0.3-0.7-0.7c0-0.2,0.1-0.3,0.2-0.5l3-2.9c0.3-0.3,0.7-0.3,0.9,0c0,0,0,0,0,0c0.3,0.3,0.3,0.7,0,0.9
			c0,0,0,0,0,0l-3,2.9C69.8,91.2,69.6,91.3,69.4,91.3"/>
		<path d="M34,131.4c-0.1,0-0.3-0.1-0.4-0.1c-0.3-0.2-0.4-0.6-0.1-0.9c0,0,0,0,0,0c6.8-9.1,14.1-17.9,21.8-26.2
			c3.5-3.8,7.1-7.5,10.9-11.2c0.2-0.3,0.7-0.3,0.9-0.1s0.3,0.7,0.1,0.9c0,0,0,0-0.1,0.1c-3.7,3.7-7.4,7.4-10.8,11.2
			c-7.7,8.3-14.9,17-21.7,26.1C34.4,131.3,34.2,131.4,34,131.4"/>
		<path d="M9.4,173.2c-0.1,0-0.2,0-0.2,0c-0.3-0.1-0.5-0.5-0.4-0.9c0,0,0,0,0,0c4.9-11.7,11.1-22.8,18.4-33.2
			c0.2-0.3,0.6-0.4,0.9-0.2c0.3,0.2,0.4,0.6,0.2,0.9c0,0,0,0,0,0c-7.3,10.3-13.4,21.3-18.3,33C9.9,173.1,9.7,173.3,9.4,173.2"/>
		<path d="M207.5,72.3c-0.9,0-1.8-0.2-2.6-0.6c-3-1.5-4.3-5.1-2.8-8.1c1-2.1,3.1-3.4,5.4-3.4c0.9,0,1.8,0.2,2.6,0.6l0,0
			c3,1.4,4.3,5,2.9,8.1C212,71,209.9,72.3,207.5,72.3 M207.5,61.5c-2.6,0-4.8,2.1-4.8,4.7c0,2.6,2.1,4.8,4.7,4.8
			c2.6,0,4.8-2.1,4.8-4.7c0-1.8-1-3.5-2.7-4.3C208.9,61.7,208.2,61.5,207.5,61.5L207.5,61.5z"/>
	</g>
</g>
<g>
	<defs>
		<rect id="SVGID_9_" x="208.9" y="3.5" width="11.3" height="58.7"/>
	</defs>
	<clipPath id="SVGID_10_">
		<use xlink:href="#SVGID_9_"  style="overflow:visible;"/>
	</clipPath>
	<g class="st7">
		<path d="M209.8,62.1c-0.1,0-0.2,0-0.3,0c-0.3-0.1-0.5-0.5-0.3-0.9c0,0,0,0,0,0l0.2-0.4c5.1-11.6,8-21.2,9.1-30.2
			c1-7.8,0.6-18.6-6.7-25.9c-0.3-0.3-0.3-0.7,0-0.9c0,0,0,0,0,0c0.3-0.3,0.7-0.3,1,0c7.7,7.7,8.1,18.9,7.1,27
			c-1.2,9.1-4.1,18.8-9.2,30.5l-0.2,0.4C210.3,61.9,210.1,62,209.8,62.1"/>
	</g>
</g>
<g>
	<defs>
		<rect id="SVGID_11_" x="2.6" y="3.4" width="217.6" height="219.1"/>
	</defs>
	<clipPath id="SVGID_12_">
		<use xlink:href="#SVGID_11_"  style="overflow:visible;"/>
	</clipPath>
	<g class="st8">
		<path d="M142,154.5c-0.2,0-0.3-0.1-0.5-0.2c-0.3-0.3-0.3-0.7,0-1c0,0,0,0,0,0l3.2-3.2c8.8-8.9,17.2-18.3,25-27.8
			c7.9-9.6,15.3-19.6,22.1-30c4.6-6.9,8.8-14.1,12.7-21.5c0.2-0.3,0.6-0.5,0.9-0.3c0.3,0.2,0.5,0.6,0.3,0.9
			c-3.9,7.4-8.1,14.6-12.7,21.6c-6.8,10.4-14.2,20.5-22.2,30.2c-7.9,9.6-16.3,19-25.1,27.9c-1.1,1.1-2.1,2.2-3.2,3.2
			C142.3,154.5,142.2,154.5,142,154.5"/>
		<path d="M128.9,91.7c-2.9,0-5.2-2.3-5.2-5.2v0c0-2.9,2.3-5.2,5.2-5.2c2.9,0,5.2,2.3,5.2,5.2C134.1,89.4,131.8,91.7,128.9,91.7
			 M128.9,82.6c-1.8,0-3.4,1.2-3.8,3c-0.1,0.3-0.1,0.6-0.1,0.9c0,2.1,1.7,3.9,3.9,3.9c1.3,0,2.5-0.6,3.2-1.7c1.2-1.8,0.7-4.2-1-5.3
			C130.5,82.9,129.7,82.6,128.9,82.6L128.9,82.6z"/>
		<path d="M80.4,149.9c-3.5,0-7.3-1.4-8.2-5.5c-1.2-6.2,3.4-13.5,5.7-16.9c3.4-5.3,7.4-10.2,11.9-14.5c4.3-4.4,9-8.2,14.1-11.4
			c4.2-2.5,10.3-5.6,15.3-4c1.5,0.4,2.6,1.5,3.2,2.9c1.1,2.6,0.3,6.6-2.3,11.9c-3,6-7.4,10.8-11,14.4c-5.4,5.4-10.2,9.1-15.2,11.6
			l-0.5,0.2c-0.3,0.1-0.7,0-0.9-0.3c-0.1-0.3,0-0.7,0.3-0.9l0.4-0.2c4.8-2.4,9.5-6,14.8-11.3c3.5-3.5,7.8-8.2,10.7-14
			c2.4-4.8,3.2-8.5,2.2-10.7c-0.4-1-1.3-1.8-2.4-2.1c-5-1.6-11.9,2.5-14.2,3.9c-5.1,3.2-9.7,7-13.9,11.3c-4.4,4.3-8.4,9.1-11.7,14.3
			c-2.1,3.3-6.6,10.2-5.5,16c0.7,3.8,4.8,4.7,8,4.4c5.3-0.5,10.5-3.6,15.4-6.8c10.4-7.1,19.4-15.9,26.7-26.1
			c3.4-4.6,6.1-9.6,8.1-14.9c1.2-3.3,2.6-8,0.5-11.3c-0.2-0.3,0-0.7,0.3-0.9c0.3-0.1,0.6-0.1,0.8,0.2c2.4,3.8,0.9,8.9-0.3,12.5
			c-2.1,5.4-4.8,10.5-8.3,15.2c-7.4,10.4-16.5,19.3-27,26.5c-5,3.3-10.3,6.5-16,7.1c-0.4,0-0.9,0.1-1.3,0.1"/>
		<path d="M90,105.4c-0.2,0-0.4-0.1-0.5-0.2c-0.2-0.3-0.2-0.7,0.1-0.9c0,0,0,0,0,0c4.1-3.6,8.4-7,12.9-10.1c4.8-3.3,10-6,15.5-8
			c2.1-0.8,4.3-1.2,6.5-1.4c0.4,0,0.7,0.3,0.7,0.6c0,0.4-0.3,0.7-0.6,0.7c-2.1,0.2-4.2,0.6-6.2,1.3c-5.4,1.9-10.5,4.6-15.2,7.8
			c-4.5,3.1-8.7,6.4-12.8,10C90.3,105.4,90.1,105.4,90,105.4"/>
		<path d="M86.6,140c-1.4,0.1-2.7-0.3-3.8-1.2c-1.1-1.2-1.6-2.8-1.3-4.4c0.5-3,1.6-5.9,3.3-8.5c0.2-0.3,0.6-0.4,0.9-0.2c0,0,0,0,0,0
			c0.3,0.2,0.4,0.6,0.2,0.9c0,0,0,0,0,0c-1.6,2.4-2.6,5.1-3.1,8c-0.3,1.2,0,2.4,0.8,3.3c1,0.9,2.8,1.1,5.2,0.6
			c0.4-0.1,0.7,0.2,0.8,0.5c0.1,0.4-0.2,0.7-0.5,0.8C88.3,139.9,87.5,140,86.6,140"/>
		<path d="M58.7,150.8h-0.1c-0.4-0.1-0.6-0.4-0.5-0.8c0,0,0,0,0,0c1.1-5.9,4.2-11.5,6.9-16.2c3.1-5.3,6.5-10.2,10.4-14.9
			c3.7-4.4,7.6-8.6,11.8-12.5c0.3-0.3,0.7-0.2,1,0c0.3,0.3,0.2,0.7,0,1l0,0c-4.2,3.9-8.1,8-11.7,12.4c-3.8,4.6-7.3,9.5-10.3,14.7
			c-2.7,4.7-5.7,10.2-6.8,15.8C59.3,150.7,59,150.9,58.7,150.8"/>
	</g>
</g>
</svg>
