<svg id="Layer_1" data-name="Layer 1" xmlns="http://www.w3.org/2000/svg" xmlns:xlink="http://www.w3.org/1999/xlink" viewBox="0 0 88.82 81.71"><defs><style>.cls-1{fill:none;}.cls-2{clip-path:url(#clip-path);}.cls-3{fill:#f9ca33;}</style><clipPath id="clip-path" transform="translate(-252.77 -380.25)"><rect class="cls-1" x="252.75" y="379.08" width="90.04" height="84.04"/></clipPath></defs><g class="cls-2"><path d="M300.69,380.25a40.85,40.85,0,1,1-40.49,46.69,41.73,41.73,0,0,1,0-11.67A40.9,40.9,0,0,1,300.69,380.25Z" transform="translate(-252.77 -380.25)"/><path d="M299.49,419.77,289,410.44a1.75,1.75,0,1,0-2.29,2.65l7,6.26H255.11a1.75,1.75,0,0,0,0,3.5H293.7l-7,6.26a1.76,1.76,0,0,0-.19,2.47,1.77,1.77,0,0,0,2.48.19l10.51-9.34a1.74,1.74,0,0,0,0-2.66Z" transform="translate(-252.77 -380.25)"/><path class="cls-3" d="M265.43,416.43h-.09a.59.59,0,0,1-.49-.67,36.28,36.28,0,0,1,48.31-28.64.59.59,0,1,1-.4,1.1,34.84,34.84,0,0,0-12.07-2.14A35.24,35.24,0,0,0,266,415.93.58.58,0,0,1,265.43,416.43Zm35.26,40.86a36.41,36.41,0,0,1-35.84-30.85.58.58,0,0,1,.49-.66.59.59,0,0,1,.67.49,35.06,35.06,0,1,0,58.25-31.1.58.58,0,0,1,.78-.86,36.18,36.18,0,0,1-24.35,63Zm21.62-63.91a.57.57,0,0,1-.35-.12c-.38-.29-.76-.57-1.15-.84a.59.59,0,0,1-.15-.82.6.6,0,0,1,.82-.14c.4.28.8.57,1.19.87a.59.59,0,0,1,.1.82A.56.56,0,0,1,322.31,393.38ZM318.8,391a.6.6,0,0,1-.29-.08c-.75-.44-1.52-.86-2.3-1.25a.58.58,0,0,1-.27-.78.59.59,0,0,1,.79-.26c.8.4,1.6.83,2.37,1.28a.58.58,0,0,1-.3,1.09Z" transform="translate(-252.77 -380.25)"/><path class="cls-3" d="M255.11,419.93a1.17,1.17,0,0,0,0,2.34H293.7a.58.58,0,0,1,.54.37.58.58,0,0,1-.15.65l-7,6.26a1.16,1.16,0,0,0-.13,1.65,1.2,1.2,0,0,0,1.65.12L299.11,422a1.17,1.17,0,0,0,.41-.89,1.15,1.15,0,0,0-.41-.88h0l-10.52-9.34a1.17,1.17,0,0,0-1.52,1.78l7,6.26a.61.61,0,0,1,.16.65.6.6,0,0,1-.55.37Zm32.73,12.84a2.33,2.33,0,0,1-1.53-4.1l5.86-5.23H255.11a2.34,2.34,0,1,1,0-4.67h37.06l-5.87-5.24a2.33,2.33,0,0,1-.24-3.28,2.35,2.35,0,0,1,3.3-.26l10.52,9.35a2.32,2.32,0,0,1,0,3.53l-10.51,9.33A2.33,2.33,0,0,1,287.84,432.77Z" transform="translate(-252.77 -380.25)"/></g></svg>