<svg id="Layer_1" data-name="Layer 1" xmlns="http://www.w3.org/2000/svg" xmlns:xlink="http://www.w3.org/1999/xlink" viewBox="0 0 80.29 80.29"><defs><style>.cls-1{fill:none;}.cls-2{clip-path:url(#clip-path);}</style><clipPath id="clip-path" transform="translate(-222.86 -377)"><rect class="cls-1" x="222.86" y="377" width="80.29" height="80.29"/></clipPath></defs><g class="cls-2"><path d="M254.4,399.94a8.6,8.6,0,1,1,8.6,8.6A8.6,8.6,0,0,1,254.4,399.94Zm31.54,0a22.94,22.94,0,0,0-45.88,0c0,17.2,22.94,45.88,22.94,45.88S285.94,417.14,285.94,399.94Z" transform="translate(-222.86 -377)"/><path d="M291.67,428.61H281.59q-1.72,3-3.47,5.74h9.67l6.88,17.2H231.33l6.88-17.2h9.67q-1.74-2.75-3.47-5.74H234.33l-11.47,28.68h80.28Z" transform="translate(-222.86 -377)"/></g></svg>