<svg id="Layer_1" data-name="Layer 1" xmlns="http://www.w3.org/2000/svg" xmlns:xlink="http://www.w3.org/1999/xlink" viewBox="0 0 79.37 84.04"><defs><style>.cls-1{fill:none;}.cls-2{clip-path:url(#clip-path);}</style><clipPath id="clip-path" transform="translate(-223.29 -375.12)"><rect class="cls-1" x="223.23" y="375.12" width="79.54" height="84.04"/></clipPath></defs><g class="cls-2"><path d="M279.59,381.81A22.77,22.77,0,1,0,286.3,398a22.77,22.77,0,0,0-6.71-16.14M276,393.16l-14.24,14.2a2.18,2.18,0,0,1-3.09,0l-7.81-7.79a2.17,2.17,0,0,1,0-3.08l1.55-1.54a2.17,2.17,0,0,1,3.08,0l4.72,4.71,11.16-11.12a2.17,2.17,0,0,1,3.08,0l1.55,1.54A2.18,2.18,0,0,1,276,393.16Z" transform="translate(-223.29 -375.12)"/><polyline points="36.91 27.62 30.64 21.37 29.1 22.91 36.91 30.7 51.15 16.5 49.6 14.96 36.91 27.62"/><path d="M231.23,420.65h-4.15a3.79,3.79,0,0,0-3.79,3.78v30.95a3.79,3.79,0,0,0,3.79,3.78h4.15a3.8,3.8,0,0,0,3.8-3.78V424.43a3.79,3.79,0,0,0-3.8-3.78" transform="translate(-223.29 -375.12)"/><path d="M301,425.09a4.76,4.76,0,0,0-5.68-.36l-.16.1a4.71,4.71,0,0,0-1.3-2.33,4.77,4.77,0,0,0-5.46-.84l-1.19.61a4.32,4.32,0,0,0-5.87-3.15l-20.09,8.31-8.46-2.27-.13,0-8.18-1.48a17.19,17.19,0,0,0-12.63,2.64l-2.29,1.54a1.55,1.55,0,0,0-.69,1.29l-.13,27.06a1.55,1.55,0,0,0,1.56,1.56,1.37,1.37,0,0,0,.4-.05l12.73-3.37h.06a17.63,17.63,0,0,1,9.87-.18,27.66,27.66,0,0,0,26.56-4.64l20.77-16.85a4.77,4.77,0,0,0,.31-7.55m-11.19-.65a1.61,1.61,0,0,1,1.86.29,1.57,1.57,0,0,1,.48,1.31,1.62,1.62,0,0,1-.73,1.19l-14.2,9.12a8.52,8.52,0,0,1-.84.46h0l-.27.12,0,0-.26.1-.06,0-.23.09-.07,0-.23.07-.09,0-.21,0a5.13,5.13,0,0,0,.46-2.13h0v-.28a.17.17,0,0,0,0-.07v-.13a.22.22,0,0,1,0-.08s0-.09,0-.13a.15.15,0,0,0,0-.07.68.68,0,0,0,0-.14v-.06l0-.15v0a1.16,1.16,0,0,0,0-.18h0a5.51,5.51,0,0,0-.76-1.65l1.13-.57,9.36-4.73h0ZM282.48,422a1.18,1.18,0,0,1,1.61,1.31,1.15,1.15,0,0,1-.62.82l-9.8,5-2.18,1.1-.23-.06-.2-.05-.16-.05-1.06-.28-.25-.07h0l-3.41-.91Zm17,6.83a1.62,1.62,0,0,1-.72,1.29l-.1.07L277.9,447.08a24.58,24.58,0,0,1-23.61,4.1l-.1,0a20.85,20.85,0,0,0-11.64.17l-10.73,2.84.11-24.2,1.62-1.08a14,14,0,0,1,10.32-2.16l8.12,1.46,18.18,4.88.21.05.32.09.32.12h0l.1.05,0,0,.11.07h0a2,2,0,0,1,.71.86h0a1.12,1.12,0,0,0,.05.13v0l0,.11a.09.09,0,0,1,0,.05l0,.1a.13.13,0,0,0,0,.06s0,.07,0,.1,0,0,0,.06v.15h0v.08s0,.08,0,.11h0a1.91,1.91,0,0,1-.45,1.14v0a.08.08,0,0,0,0,0l0,0h0l-.06.06-.1.08-.1.08,0,0-.1.06-.07,0-.09.05-.08,0-.05,0-.13,0-.05,0-.12,0h-.48l-17.9-3.33a1.57,1.57,0,0,0-1.82,1.25,1.55,1.55,0,0,0,1.25,1.81l17.63,3.29.44.07,1.25.23.25,0h.08l.17,0h.1l.15,0h.11l.15,0h1.77l.33,0h.08l.3,0h.05l.33-.05.08,0,.3-.06h0l.33-.07.07,0,.31-.09h0l.33-.1.07,0,.3-.11h0l.32-.12.07,0,.3-.14h0l.31-.15.07,0,.3-.15h0l.31-.17.07,0a2.9,2.9,0,0,0,.29-.19l14.21-9.11h0l3.9-2.51a1.67,1.67,0,0,1,2.57,1.49Z" transform="translate(-223.29 -375.12)"/></g></svg>