<svg id="Layer_1" data-name="Layer 1" xmlns="http://www.w3.org/2000/svg" xmlns:xlink="http://www.w3.org/1999/xlink" viewBox="0 0 29.8 18.03"><defs><style>.cls-1{fill:none;}.cls-2{clip-path:url(#clip-path);}.cls-3{clip-path:url(#clip-path-3);}.cls-4{clip-path:url(#clip-path-4);}.cls-5{fill:#fff;}</style><clipPath id="clip-path" transform="translate(-282.87 -411.9)"><rect class="cls-1" x="282.76" y="411.89" width="30.01" height="18.01"/></clipPath><clipPath id="clip-path-3" transform="translate(-282.87 -411.9)"><rect class="cls-1" x="282.87" y="411.89" width="29.8" height="18.54"/></clipPath><clipPath id="clip-path-4" transform="translate(-282.87 -411.9)"><rect class="cls-1" x="282.87" y="411.89" width="29.8" height="18.03"/></clipPath></defs><g class="cls-2"><g class="cls-2"><g class="cls-3"><g class="cls-4"><path class="cls-5" d="M298.7,429.52l2.25-2.2,11.33-11a1.26,1.26,0,0,0,0-1.82l-2.3-2.19a1.34,1.34,0,0,0-1.86,0L297.77,422.4,287.4,412.27a1.34,1.34,0,0,0-1.86,0l-2.29,2.21a1.27,1.27,0,0,0,0,1.82l11.29,11,2.25,2.21a1.34,1.34,0,0,0,1.86,0l.05-.05" transform="translate(-282.87 -411.9)"/></g></g></g></g></svg>