<?xml version="1.0" encoding="utf-8"?>
<!-- Generator: Adobe Illustrator 25.2.0, SVG Export Plug-In . SVG Version: 6.00 Build 0)  -->
<svg version="1.1" id="Layer_1" xmlns="http://www.w3.org/2000/svg" xmlns:xlink="http://www.w3.org/1999/xlink" x="0px" y="0px"
	 viewBox="0 0 149.2 202.6" style="enable-background:new 0 0 149.2 202.6;" xml:space="preserve">
<style type="text/css">
	.st0{clip-path:url(#SVGID_2_);}
	.st1{fill:#F9C933;}
	.st2{clip-path:url(#SVGID_4_);fill:none;}
	.st3{clip-path:url(#SVGID_4_);}
	.st4{fill:none;}
</style>
<g>
	<defs>
		<rect id="SVGID_1_" x="0" width="149.3" height="202.6"/>
	</defs>
	<clipPath id="SVGID_2_">
		<use xlink:href="#SVGID_1_"  style="overflow:visible;"/>
	</clipPath>
	<g class="st0">
		<path d="M62.8,59V31c-0.4,0-0.9,0-1.4,0s-0.7,0-1,0V59c0.4-0.1,0.7-0.1,1.1-0.1C62,58.9,62.4,58.9,62.8,59"/>
		<path class="st1" d="M62.8,31c9.5,0.5,12.9,5.9,12.9,5.9c3-4.2,7.9-6.8,13.1-6.8c10.2,0,15,6.8,15,6.8C102.6,16.3,84.5,0,62.4,0
			S22.1,16.3,20.9,36.9c3.3-4.5,8.7-7.2,14.3-7c5.3,0,10.2,2.6,13.2,7c0,0,3.4-5.4,12-5.9c0.3,0,0.7,0,1,0C61.9,31,62.3,31,62.8,31
			 M51.3,16.9c-1.5,3.6-2.3,7.5-2.4,11.4c0,1.4,0.1,2.8,0.4,4.1l0,0c0.1,0.6-0.3,1.3-0.9,1.4c-0.6,0.1-1.3-0.3-1.4-0.9
			c-0.3-1.5-0.4-3.1-0.4-4.7c0-4.2,0.9-8.4,2.5-12.3C51.7,10.1,55.8,5,61,1.3c0.2-0.2,0.5-0.3,0.8-0.2c0.3,0,0.6,0,0.8,0.2
			c5.2,3.7,9.3,8.7,11.9,14.6C76.1,19.8,77,24,77,28.2c0,1.6-0.1,3.1-0.4,4.7c-0.2,0.6-0.8,1-1.4,0.9c-0.6-0.2-1-0.8-0.9-1.4l0,0
			v-0.1v-0.2c0-0.2,0.1-0.4,0.1-0.8c0.1-1,0.2-2,0.2-3.1c0-3.9-0.8-7.8-2.3-11.4c-2.3-5.2-5.9-9.7-10.4-13.1
			C57.2,7.1,53.6,11.7,51.3,16.9L51.3,16.9z"/>
		<path d="M61.2,3.3c-0.5-0.4-0.6-1.1-0.3-1.6c0.2-0.3,0.5-0.5,0.9-0.5c-0.3,0-0.6,0-0.8,0.2c-5.2,3.7-9.3,8.7-11.9,14.6
			c-1.7,3.9-2.5,8.1-2.5,12.3c0,1.6,0.1,3.1,0.4,4.7c0.1,0.6,0.8,1,1.4,0.9c0.6-0.1,1-0.8,0.9-1.4l0,0l0,0c-0.3-1.4-0.4-2.7-0.4-4.1
			c0-3.9,0.8-7.8,2.4-11.4c2.3-5.2,5.9-9.7,10.5-13.1L61.2,3.3"/>
		<path d="M61,1.6c-0.4,0.5-0.3,1.3,0.2,1.7c0,0,0,0,0,0l0.6,0.5c4.6,3.4,8.2,7.9,10.5,13.1c1.5,3.6,2.3,7.5,2.4,11.4
			c0,1-0.1,2-0.2,3.1c0,0.4-0.1,0.6-0.1,0.8v0.2v0.1l0,0c-0.1,0.6,0.3,1.3,0.9,1.4c0.6,0.1,1.3-0.3,1.4-0.9c0.3-1.5,0.4-3.1,0.4-4.7
			c0-4.2-0.9-8.4-2.5-12.3C72,10.1,67.9,5.1,62.7,1.4c-0.2-0.2-0.5-0.3-0.8-0.2C61.5,1.2,61.2,1.3,61,1.6"/>
		<path d="M96.7,58.3c0,4.6,1.6,9,4.5,12.5c1.4,1.7,3.1,3.1,5,4.1c3.9,2.1,8.6,2.1,12.4,0c2.9-1.6,5.3-3.9,6.9-6.8
			c1.7-3,2.6-6.4,2.7-9.8c0-8.7-7.1-15.8-15.8-15.8S96.7,49.6,96.7,58.3 M112.4,44.8c7.2-0.2,13.2,5.4,13.4,12.6c0,0.3,0,0.6,0,0.9
			c0,4-1.4,7.9-4,11c-1.2,1.4-2.6,2.6-4.3,3.5c-3.2,1.7-7,1.7-10.2,0c-2.5-1.4-4.6-3.4-5.9-5.9c-1.5-2.6-2.3-5.6-2.3-8.6
			c-0.3-7.2,5.3-13.2,12.5-13.5C111.8,44.7,112.1,44.7,112.4,44.8z"/>
		<path d="M140.1,82.3L140.1,82.3c-1.5-1.1-3.2-1.7-5.1-1.7l0,0l-20,0.1l-13.8,0h-4.6h-1.4L65.8,60.2c-0.9-0.6-1.9-1.1-3-1.2
			c-0.4-0.1-0.8-0.1-1.3-0.1c-0.4,0-0.7,0-1.1,0.1c-2,0.3-3.8,1.4-4.9,3.1l0,0c-2.3,3.3-1.5,8,1.8,10.3c0,0,0,0,0,0l32.4,22.6
			c0,8.4-0.2,97.4-0.2,97.4l0,0c0,5.6,4.6,10.2,10.2,10.2c5.6,0,10.2-4.6,10.2-10.2v-50.2h4v50.2c0,5.6,4.6,10.2,10.2,10.2
			c5.6,0,10.2-4.6,10.2-10.2v-56c0.6,0.1,1.1,0.2,1.7,0.2c4.1,0,7.4-3.3,7.4-7.4c0,0,0,0,0,0V88.5C143.4,86,142.1,83.7,140.1,82.3
			 M132.9,136.3c-0.4,0-0.8-0.2-1-0.5v56.6c0,4.3-3.5,7.9-7.9,7.9c-4.3,0-7.8-3.5-7.8-7.9V141c0-0.3-0.1-0.6-0.3-0.8
			c-0.2-0.2-0.5-0.3-0.8-0.4h-6.4c-0.3,0-0.6,0.1-0.8,0.4c-0.2,0.2-0.3,0.5-0.3,0.8v51.4c0,4.3-3.5,7.9-7.9,7.9
			c-4.3,0-7.8-3.5-7.8-7.9l0,0c0,0,0.1-24.2,0.1-48.5S92,95,92,94.3c0-0.4-0.2-0.8-0.5-1l-32.9-23c-2.3-1.6-2.8-4.7-1.3-7
			c0,0,0,0,0,0l0,0c0.9-1.3,2.5-2.1,4.1-2.1c1,0,2,0.3,2.9,0.9l29.7,20.8c0.2,0.2,0.5,0.2,0.7,0.2H95c1.5,0,11.6-0.1,21.2-0.1l13,0
			h5.8c1.3,0,2.6,0.4,3.6,1.2l0.1,0.1c1.4,0.9,2.3,2.5,2.3,4.2v40.7c0,2.8-2.2,5-5,5c-0.6,0-1.3-0.1-1.9-0.4v1.3
			C134.1,135.8,133.6,136.3,132.9,136.3L132.9,136.3z"/>
		<path d="M134.2,135.2v-33.5c0-0.7-0.5-1.2-1.2-1.2s-1.2,0.5-1.2,1.2l0,0v33.5c0,0.2,0.1,0.5,0.2,0.7c0.4,0.5,1.1,0.7,1.7,0.3
			C134,135.9,134.2,135.6,134.2,135.2"/>
		<path d="M33.1,74.9c3.9,2.1,8.5,2.1,12.4,0c2.9-1.6,5.3-3.9,6.9-6.8c1.7-3,2.6-6.4,2.6-9.8c0.2-8.7-6.7-15.9-15.3-16.1
			c-8.7-0.2-15.9,6.7-16.1,15.3c0,0.3,0,0.5,0,0.8c0,4.6,1.6,9,4.5,12.5C29.4,72.5,31.1,73.9,33.1,74.9 M39.3,44.7
			c7.2-0.2,13.2,5.4,13.4,12.6c0,0.3,0,0.6,0,0.9c0,4-1.4,7.9-4,11c-1.2,1.4-2.6,2.6-4.3,3.5c-3.2,1.7-7,1.7-10.2,0
			c-2.5-1.4-4.5-3.4-5.9-5.9c-1.5-2.6-2.3-5.6-2.3-8.6c-0.3-7.2,5.3-13.2,12.5-13.5C38.7,44.7,39,44.7,39.3,44.7L39.3,44.7z"/>
		<path d="M16.2,192.4c0,5.6,4.6,10.2,10.2,10.2c5.6,0,10.2-4.6,10.2-10.2v-50.2h4v50.2c0,5.6,4.6,10.2,10.2,10.2
			c5.6,0,10.2-4.6,10.2-10.2v-56.8c0.6,0.1,1.1,0.2,1.7,0.2c4.1,0,7.4-3.3,7.4-7.4V87.8c0-4.1-3.3-7.4-7.4-7.4l0,0h-48
			c-4.1,0-7.4,3.3-7.4,7.4c0,0,0,0,0,0v40.7c0,4.1,3.3,7.4,7.4,7.4l0,0c0.5,0,0.9-0.1,1.4-0.1L16.2,192.4 M60.1,135.6
			c-0.7,0-1.2-0.5-1.2-1.2l0,0v-1c-0.1,0.1-0.1,0.3-0.1,0.5v58.4c0.2,4.3-3.2,8-7.6,8.1c-4.3,0.2-8-3.2-8.1-7.6c0-0.2,0-0.4,0-0.6
			V141c0-0.7-0.5-1.2-1.2-1.2h-6.4c-0.7,0-1.2,0.5-1.2,1.2v51.4c0,4.3-3.5,7.9-7.9,7.9c-4.3,0-7.8-3.5-7.8-7.9v-58.3
			c0-0.2,0-0.4-0.1-0.5v0.4c0,0.7-0.5,1.2-1.2,1.2s-1.2-0.5-1.2-1.2v-0.6c-0.4,0.1-0.8,0.2-1.2,0.2c-2.8,0-5-2.2-5-5V87.8
			c0-2.8,2.2-5,5-5h48c2.8,0,5,2.2,5,5v40.7c0,2.8-2.2,5-5,5c-0.5,0-1.1-0.1-1.6-0.3v1.3C61.3,135.1,60.8,135.6,60.1,135.6z"/>
		<path d="M17.3,100.1c-0.7,0-1.2,0.5-1.2,1.2l0,0v32.6c0,0.7,0.5,1.2,1.2,1.2s1.2-0.5,1.2-1.2v-32.6
			C18.5,100.7,18,100.1,17.3,100.1L17.3,100.1"/>
		<path d="M61.3,133.2v-31.4c0-0.7-0.5-1.2-1.2-1.2s-1.2,0.5-1.2,1.2v32.6c0,0.7,0.5,1.2,1.2,1.2s1.2-0.5,1.2-1.2V133.2"/>
		<path d="M140.7,142c-0.7,0-1.2,0.5-1.2,1.2l0,0v29.5c0.1,0.7,0.6,1.1,1.3,1.1c0.6-0.1,1-0.5,1.1-1.1v-29.5
			C141.9,142.5,141.3,141.9,140.7,142C140.7,141.9,140.7,141.9,140.7,142"/>
		<path d="M141.7,191.1v-8.5c-0.1-0.7-0.6-1.1-1.3-1.1c-0.6,0.1-1,0.5-1.1,1.1v8.5c0.1,0.7,0.6,1.1,1.3,1.1
			C141.2,192.1,141.6,191.6,141.7,191.1"/>
		<path d="M148,157.6c-0.7,0-1.2,0.5-1.2,1.2l0,0v25.2c0,0.7,0.5,1.2,1.2,1.2s1.2-0.5,1.2-1.2v-25.2
			C149.2,158.1,148.7,157.6,148,157.6L148,157.6"/>
		<path d="M1.2,86.4c-0.7,0-1.2,0.5-1.2,1.2l0,0v20.7c0,0.7,0.5,1.2,1.2,1.2s1.2-0.5,1.2-1.2V87.6C2.4,86.9,1.8,86.4,1.2,86.4
			L1.2,86.4"/>
		<path d="M1.2,116.4c-0.7,0-1.2,0.5-1.2,1.2c0,0,0,0,0,0v12.2c0,0.7,0.5,1.2,1.2,1.2s1.2-0.5,1.2-1.2v-12.2
			C2.4,117,1.8,116.4,1.2,116.4L1.2,116.4"/>
	</g>
</g>
<g>
	<defs>
		<line id="SVGID_3_" x1="-780.6" y1="378" x2="-780.6" y2="-198.3"/>
	</defs>
	<clipPath id="SVGID_4_">
		<use xlink:href="#SVGID_3_"  style="overflow:visible;"/>
	</clipPath>
	<path class="st2" d="M244.4,378"/>
	<g class="st3">
		<line class="st4" x1="-785.3" y1="-78.5" x2="-785.3" y2="-122.8"/>
		<line class="st4" x1="346.9" y1="-122.8" x2="346.9" y2="-78.5"/>
	</g>
</g>
</svg>
