<svg id="Layer_1" data-name="Layer 1" xmlns="http://www.w3.org/2000/svg" xmlns:xlink="http://www.w3.org/1999/xlink" viewBox="0 0 116.02 214.54"><defs><style>.cls-1{fill:none;}.cls-2{clip-path:url(#clip-path);}.cls-3{fill:#f9c933;}</style><clipPath id="clip-path" transform="translate(-57.74 -330.55)"><rect class="cls-1" x="57.63" y="330.49" width="116.31" height="214.6"/></clipPath></defs><g class="cls-2"><path class="cls-3" d="M81.11,432.64c-10.07,19,25.33,16.93,31.45,16.43v-1.63c-4.11-6.89-21.42-33.76-31.45-14.8" transform="translate(-57.74 -330.55)"/><path class="cls-3" d="M146.22,436.33c-9.78-18.5-26.49,6.61-31.12,14.25v2.2c7,.54,41,2.28,31.12-16.45" transform="translate(-57.74 -330.55)"/><path d="M114.86,423.92c-.73-.5-1.5-1-2.3-1.61v44.93h2.54V423.76l-.24.16" transform="translate(-57.74 -330.55)"/><path d="M137.22,339.37a30.13,30.13,0,0,1,3.7-.23,29.65,29.65,0,0,1,10.54,1.92,1.27,1.27,0,0,0,.91-2.38,32.23,32.23,0,0,0-11.45-2.09,31.44,31.44,0,0,0-4,.25,1.27,1.27,0,0,0-1.1,1.42,1.28,1.28,0,0,0,1.42,1.11" transform="translate(-57.74 -330.55)"/><path d="M159.17,342.24a1.27,1.27,0,1,0-1.44,2.1,29.76,29.76,0,0,1,12.93,24.57A26.29,26.29,0,0,1,168.12,381a1.27,1.27,0,1,0,2.29,1.12,29,29,0,0,0,2.8-13.24,32.29,32.29,0,0,0-14-26.67" transform="translate(-57.74 -330.55)"/><path d="M149.21,330.55a1.28,1.28,0,0,0-1.4,1.14,1.26,1.26,0,0,0,1.13,1.4,33.16,33.16,0,0,1,22.55,12.45,1.27,1.27,0,1,0,2-1.58,35.62,35.62,0,0,0-24.27-13.41" transform="translate(-57.74 -330.55)"/><path class="cls-3" d="M115.1,423.76c2.81-1.83,29.72-19.53,41.79-31.63,7.58-7.61,10.48-13.19,10.48-22.1a28.48,28.48,0,0,0-51.55-16.74A28.48,28.48,0,0,0,64.27,370c0,9.44,3.57,15.55,11.63,23,5.68,5.23,24.77,20.87,36.66,29.29.8.57,1.57,1.11,2.3,1.61l.24-.16m-10.41-21.87c-3.57-2.79-7.17-5.72-10-8.08-1.89-1.58-3.42-2.91-4.38-3.8a26.27,26.27,0,0,1-5.73-7,17.11,17.11,0,0,1-1.87-8.14,18.85,18.85,0,0,1,33.1-12.37,18.84,18.84,0,0,1,33.09,12.37,17,17,0,0,1-1.6,7.67,26,26,0,0,1-5.24,6.86,87.62,87.62,0,0,1-7.49,6.5c-2.82,2.23-5.83,4.44-8.59,6.41-5.53,3.94-10.06,6.88-10.07,6.89a1.29,1.29,0,0,1-1.41,0C111.8,407.35,108.26,404.69,104.69,401.89Z" transform="translate(-57.74 -330.55)"/><path d="M115.92,409.22s4.54-3,10.07-6.89c2.76-2,5.77-4.19,8.59-6.41a87.62,87.62,0,0,0,7.49-6.5,26,26,0,0,0,5.24-6.86,17,17,0,0,0,1.6-7.68,18.84,18.84,0,0,0-33.09-12.36,18.84,18.84,0,0,0-33.09,12.36A17,17,0,0,0,84.59,383a26.27,26.27,0,0,0,5.73,7c1,.89,2.49,2.22,4.38,3.79,2.82,2.37,6.42,5.3,10,8.09s7.11,5.46,9.82,7.31a1.27,1.27,0,0,0,1.41,0M96.33,391.85C94.47,390.29,93,389,92,388.14a23.85,23.85,0,0,1-5.19-6.29,14.52,14.52,0,0,1-1.58-7,16.31,16.31,0,0,1,29.52-9.58,1.27,1.27,0,0,0,2.06,0,16.3,16.3,0,0,1,29.51,9.58,14.37,14.37,0,0,1-1.35,6.57,23.44,23.44,0,0,1-4.74,6.17,83.8,83.8,0,0,1-7.26,6.3c-4.17,3.28-8.79,6.58-12.37,9.05-1.79,1.23-3.32,2.26-4.4,3l-1,.66c-3.47-2.41-8.18-6.05-12.52-9.52C100.41,395.23,98.2,393.41,96.33,391.85Z" transform="translate(-57.74 -330.55)"/><path d="M154.43,487.34,145,542.54H82.68l-9.45-55.2H70.65L80.35,544a1.26,1.26,0,0,0,1.25,1.06h64.46a1.26,1.26,0,0,0,1.25-1.06l9.7-56.68h-2.58" transform="translate(-57.74 -330.55)"/><path d="M67.88,467.24A5.15,5.15,0,0,0,64,469a6.1,6.1,0,0,0-1.53,4.09v8.39a6.12,6.12,0,0,0,1.53,4.1,5.22,5.22,0,0,0,3.86,1.76h91.9a5.22,5.22,0,0,0,3.86-1.76,6.17,6.17,0,0,0,1.53-4.1v-8.39a6.1,6.1,0,0,0-1.53-4.09,5.15,5.15,0,0,0-3.86-1.76H67.88m94.74,14.24a3.57,3.57,0,0,1-.88,2.39,2.61,2.61,0,0,1-2,.92H67.88a2.61,2.61,0,0,1-2-.92,3.57,3.57,0,0,1-.88-2.39v-8.39a3.59,3.59,0,0,1,.88-2.39,2.6,2.6,0,0,1,2-.91h91.9a2.6,2.6,0,0,1,2,.91,3.59,3.59,0,0,1,.88,2.39Z" transform="translate(-57.74 -330.55)"/><path d="M68.7,519.5a1.28,1.28,0,0,0,1-1.47l-3.63-21.18a1.27,1.27,0,1,0-2.51.43l3.62,21.18a1.28,1.28,0,0,0,1.48,1" transform="translate(-57.74 -330.55)"/><path d="M70.69,524.26a1.27,1.27,0,1,0-2.51.44l1.9,10.93a1.28,1.28,0,0,0,1.48,1,1.27,1.27,0,0,0,1-1.48l-1.9-10.93" transform="translate(-57.74 -330.55)"/><path d="M60.27,508.69a1.28,1.28,0,0,0-2.52.41l3.56,22a1.28,1.28,0,1,0,2.52-.4l-3.56-22" transform="translate(-57.74 -330.55)"/></g></svg>